<?xml version="1.0" standalone="no"?>
<!-- Creator: fig2dev Version 3.2.7a -->
<!-- CreationDate: 2021-09-12 01:13:05 -->
<!-- Magnification: 1.05 -->
<svg	xmlns="http://www.w3.org/2000/svg"
	xmlns:xlink="http://www.w3.org/1999/xlink"
	width="298pt" height="263pt"
	viewBox="210 136 4720 4173">
<g fill="none">
<!-- Arc -->
<path d="M 3240,3150 A 45 45 0 0 1 3330 3150"
	stroke="#000000" stroke-width="8px"/>
<!-- Arc -->
<path d="M 3330,3150 A 45 45 0 0 1 3420 3150"
	stroke="#000000" stroke-width="8px"/>
<!-- Arc -->
<path d="M 3420,3150 A 45 45 0 0 1 3510 3150"
	stroke="#000000" stroke-width="8px"/>
<!-- Arc -->
<path d="M 3600,3150 A 45 45 0 0 1 3690 3150"
	stroke="#000000" stroke-width="8px"/>
<!-- Arc -->
<path d="M 3690,3150 A 45 45 0 0 1 3780 3150"
	stroke="#000000" stroke-width="8px"/>
<!-- Arc -->
<path d="M 3780,3150 A 45 45 0 0 1 3870 3150"
	stroke="#000000" stroke-width="8px"/>
<!-- Circle -->
<circle cx="2790" cy="1710" r="23" fill="#000000"/>
<!-- Circle -->
<circle cx="3060" cy="1980" r="23" fill="#000000"/>
<!-- Circle -->
<circle cx="1485" cy="2970" r="135"
	stroke="#000000" stroke-width="8px"/>
<!-- Circle -->
<circle cx="1800" cy="2970" r="135"
	stroke="#000000" stroke-width="8px"/>
<!-- Circle -->
<circle cx="2115" cy="2970" r="135"
	stroke="#000000" stroke-width="8px"/>
<!-- Circle -->
<circle cx="1170" cy="3285" r="135"
	stroke="#000000" stroke-width="8px"/>
<!-- Circle -->
<circle cx="1485" cy="3285" r="135"
	stroke="#000000" stroke-width="8px"/>
<!-- Circle -->
<circle cx="1800" cy="3285" r="135"
	stroke="#000000" stroke-width="8px"/>
<!-- Circle -->
<circle cx="2115" cy="3285" r="135"
	stroke="#000000" stroke-width="8px"/>
<!-- Circle -->
<circle cx="1170" cy="3600" r="135"
	stroke="#000000" stroke-width="8px"/>
<!-- Circle -->
<circle cx="1800" cy="3600" r="135"
	stroke="#000000" stroke-width="8px"/>
<!-- Circle -->
<circle cx="2115" cy="3600" r="135"
	stroke="#000000" stroke-width="8px"/>
<!-- Circle -->
<circle cx="1170" cy="3915" r="135"
	stroke="#000000" stroke-width="8px"/>
<!-- Circle -->
<circle cx="1485" cy="3915" r="135"
	stroke="#000000" stroke-width="8px"/>
<!-- Circle -->
<circle cx="1800" cy="3915" r="135"
	stroke="#000000" stroke-width="8px"/>
<!-- Circle -->
<circle cx="2115" cy="3915" r="135"
	stroke="#000000" stroke-width="8px"/>
<!-- Circle -->
<circle cx="1170" cy="2970" r="135"
	stroke="#000000" stroke-width="8px"/>
<!-- Circle -->
<circle cx="1172" cy="2662" r="135"
	stroke="#000000" stroke-width="8px"/>
<!-- Circle -->
<circle cx="1477" cy="2652" r="135"
	stroke="#000000" stroke-width="8px"/>
<!-- Circle -->
<circle cx="1792" cy="2652" r="135"
	stroke="#000000" stroke-width="8px"/>
<!-- Circle -->
<circle cx="2107" cy="2652" r="135"
	stroke="#000000" stroke-width="8px"/>
<!-- Circle -->
<circle cx="1485" cy="3600" r="135"
	stroke="#000000" stroke-width="8px"/>
<!-- Circle -->
<circle cx="3555" cy="3150" r="23" fill="#000000"/>
<!-- Line -->
<polygon points=" 1350,1260 1350,1440 1530,1350"
	stroke="#000000" stroke-width="8px"/>
<!-- Line -->
<polyline points=" 1170,1350 1350,1350"
	stroke="#000000" stroke-width="8px"/>
<!-- Line -->
<rect x="1800" y="1260" width="180" height="180"
	stroke="#000000" stroke-width="8px"/>
<!-- Line -->
<rect x="2070" y="1260" width="180" height="180"
	stroke="#000000" stroke-width="8px"/>
<!-- Line -->
<rect x="2340" y="1260" width="180" height="180"
	stroke="#000000" stroke-width="8px"/>
<!-- Line -->
<rect x="2610" y="1260" width="180" height="180"
	stroke="#000000" stroke-width="8px"/>
<!-- Line -->
<rect x="2880" y="1260" width="180" height="180"
	stroke="#000000" stroke-width="8px"/>
<!-- Line -->
<polyline points=" 1530,1350 1710,1350"
	stroke="#000000" stroke-width="8px"/>
<!-- Line -->
<polyline points=" 3150,1530 1710,1530 1710,1170 3285,1170"
	stroke="#000000" stroke-width="8px"/>
<!-- Line -->
<polyline points=" 3150,1530 3195,1350 3240,1350 3285,1170"
	stroke="#000000" stroke-width="8px"/>
<!-- Line -->
<rect x="3600" y="1260" width="180" height="180"
	stroke="#000000" stroke-width="8px"/>
<!-- Line -->
<rect x="3870" y="1260" width="180" height="180"
	stroke="#000000" stroke-width="8px"/>
<!-- Line -->
<polyline points=" 4140,1350 4320,1350"
	stroke="#000000" stroke-width="8px"/>
<!-- Line -->
<polygon points=" 4320,1260 4320,1440 4500,1350"
	stroke="#000000" stroke-width="8px"/>
<!-- Line -->
<polygon points=" 1350,1620 1350,1800 1530,1710"
	stroke="#000000" stroke-width="8px"/>
<!-- Line -->
<polyline points=" 1170,1710 1350,1710"
	stroke="#000000" stroke-width="8px"/>
<!-- Line -->
<polygon points=" 1350,1890 1350,2070 1530,1980"
	stroke="#000000" stroke-width="8px"/>
<!-- Line -->
<polyline points=" 1170,1980 1350,1980"
	stroke="#000000" stroke-width="8px"/>
<!-- Line -->
<polyline points=" 1530,1710 2790,1710 2790,1530"
	stroke="#000000" stroke-width="8px"/>
<!-- Line -->
<polygon points=" 4320,1620 4320,1800 4500,1710"
	stroke="#000000" stroke-width="8px"/>
<!-- Line -->
<polygon points=" 4320,1890 4320,2070 4500,1980"
	stroke="#000000" stroke-width="8px"/>
<!-- Line -->
<polyline points=" 2790,1710 4320,1710"
	stroke="#000000" stroke-width="8px"/>
<!-- Line -->
<polyline points=" 3060,1980 4320,1980"
	stroke="#000000" stroke-width="8px"/>
<!-- Line -->
<polyline points=" 4500,1350 4680,1350"
	stroke="#000000" stroke-width="8px"/>
<!-- Line -->
<polyline points=" 4500,1710 4680,1710"
	stroke="#000000" stroke-width="8px"/>
<!-- Line -->
<polyline points=" 4500,1980 4680,1980"
	stroke="#000000" stroke-width="8px"/>
<!-- Line -->
<polyline points=" 1890,1170 1890,990"
	stroke="#000000" stroke-width="8px"/>
<!-- Line -->
<polyline points=" 2160,1170 2160,990"
	stroke="#000000" stroke-width="8px"/>
<!-- Line -->
<polygon points=" 1845,675 1935,585 2205,855 2115,945"
	stroke="#000000" stroke-width="8px"/>
<!-- Line -->
<polyline points=" 1890,720 1980,630"
	stroke="#000000" stroke-width="8px"/>
<!-- Line -->
<polyline points=" 1890,990 1980,990 1980,855"
	stroke="#000000" stroke-width="8px"/>
<!-- Line -->
<polyline points=" 2160,990 2070,990 2070,855"
	stroke="#000000" stroke-width="8px"/>
<!-- Line -->
<polyline points=" 2700,1170 2700,990"
	stroke="#000000" stroke-width="8px"/>
<!-- Line -->
<polygon points=" 2385,675 2475,585 2745,855 2655,945"
	stroke="#000000" stroke-width="8px"/>
<!-- Line -->
<polyline points=" 2430,720 2520,630"
	stroke="#000000" stroke-width="8px"/>
<!-- Line -->
<polyline points=" 2430,990 2520,990 2520,855"
	stroke="#000000" stroke-width="8px"/>
<!-- Line -->
<polyline points=" 2700,990 2610,990 2610,855"
	stroke="#000000" stroke-width="8px"/>
<!-- Line -->
<polyline points=" 2970,1170 2970,990"
	stroke="#000000" stroke-width="8px"/>
<!-- Line -->
<polyline points=" 3240,1170 3240,990"
	stroke="#000000" stroke-width="8px"/>
<!-- Line -->
<polygon points=" 2925,675 3015,585 3285,855 3195,945"
	stroke="#000000" stroke-width="8px"/>
<!-- Line -->
<polyline points=" 2970,720 3060,630"
	stroke="#000000" stroke-width="8px"/>
<!-- Line -->
<polyline points=" 2970,990 3060,990 3060,855"
	stroke="#000000" stroke-width="8px"/>
<!-- Line -->
<polyline points=" 3240,990 3150,990 3150,855"
	stroke="#000000" stroke-width="8px"/>
<!-- Line -->
<polyline points=" 3690,1170 3690,990"
	stroke="#000000" stroke-width="8px"/>
<!-- Line -->
<polyline points=" 3960,1170 3960,990"
	stroke="#000000" stroke-width="8px"/>
<!-- Line -->
<polygon points=" 3645,675 3735,585 4005,855 3915,945"
	stroke="#000000" stroke-width="8px"/>
<!-- Line -->
<polyline points=" 3690,720 3780,630"
	stroke="#000000" stroke-width="8px"/>
<!-- Line -->
<polyline points=" 3690,990 3780,990 3780,855"
	stroke="#000000" stroke-width="8px"/>
<!-- Line -->
<polyline points=" 3960,990 3870,990 3870,855"
	stroke="#000000" stroke-width="8px"/>
<!-- Line -->
<polyline points=" 3510,1170 4140,1170 4140,1530 3375,1530"
	stroke="#000000" stroke-width="8px"/>
<!-- Line -->
<polyline points=" 3375,1530 3420,1350 3465,1350 3510,1170"
	stroke="#000000" stroke-width="8px"/>
<!-- Line -->
<polyline points=" 1125,1305 1170,1350 1125,1395"
	stroke="#000000" stroke-width="8px"/>
<!-- Line -->
<polyline points=" 1125,1665 1170,1710 1125,1755"
	stroke="#000000" stroke-width="8px"/>
<!-- Line -->
<polyline points=" 1125,1935 1170,1980 1125,2025"
	stroke="#000000" stroke-width="8px"/>
<!-- Line -->
<polyline points=" 4635,1305 4680,1350 4635,1395"
	stroke="#000000" stroke-width="8px"/>
<!-- Line -->
<polyline points=" 4635,1665 4680,1710 4635,1755"
	stroke="#000000" stroke-width="8px"/>
<!-- Line -->
<polyline points=" 4635,1935 4680,1980 4635,2025"
	stroke="#000000" stroke-width="8px"/>
<!-- Line -->
<polyline points=" 1665,1305 1710,1350 1665,1395"
	stroke="#000000" stroke-width="8px"/>
<!-- Line -->
<polyline points=" 2745,1575 2790,1530 2835,1575"
	stroke="#000000" stroke-width="8px"/>
<!-- Line -->
<polyline points=" 1530,1980 3060,1980 3060,1530"
	stroke="#000000" stroke-width="8px"/>
<!-- Line -->
<polyline points=" 3015,1575 3060,1530 3105,1575"
	stroke="#000000" stroke-width="8px"/>
<!-- Line -->
<polyline points=" 2430,1170 2430,990"
	stroke="#000000" stroke-width="8px"/>
<!-- Line -->
<rect x="222" y="148" width="4696" height="4149"
	stroke="#000000" stroke-width="8px"/>
<!-- Line -->
<rect x="990" y="2475" width="1305" height="1620"
	stroke="#000000" stroke-width="8px"/>
<!-- Line -->
<polyline points=" 3510,3150 3600,3150"
	stroke="#000000" stroke-width="8px"/>
<!-- Line -->
<polyline points=" 3555,3150 3555,3060"
	stroke="#000000" stroke-width="8px"/>
<!-- Line -->
<polygon points=" 3240,3330 3150,3510 3330,3510"
	stroke="#000000" stroke-width="8px"/>
<!-- Line -->
<polyline points=" 3240,3150 3240,3330"
	stroke="#000000" stroke-width="8px"/>
<!-- Line -->
<polyline points=" 3870,3150 3870,3330"
	stroke="#000000" stroke-width="8px"/>
<!-- Line -->
<polygon points=" 3870,3330 3780,3510 3960,3510"
	stroke="#000000" stroke-width="8px"/>
<!-- Line -->
<polygon points=" 3555,2745 3510,2790 3600,2790"
	stroke="#000000" stroke-width="8px"/>
<!-- Line -->
<rect x="3510" y="2880" width="90" height="180"
	stroke="#000000" stroke-width="8px"/>
<!-- Line -->
<polyline points=" 3555,2790 3555,2880"
	stroke="#000000" stroke-width="8px"/>
<!-- Line -->
<polyline points=" 3240,3510 3240,3690"
	stroke="#000000" stroke-width="8px"/>
<!-- Line -->
<polyline points=" 3870,3510 3870,3690"
	stroke="#000000" stroke-width="8px"/>
<!-- Line -->
<polyline points=" 3825,3735 3870,3690 3915,3735"
	stroke="#000000" stroke-width="8px"/>
<!-- Line -->
<polyline points=" 3195,3735 3240,3690 3285,3735"
	stroke="#000000" stroke-width="8px"/>
<!-- Text -->
<text xml:space="preserve" x="1080" y="1395" fill="#000000" font-family="Helvetica" font-style="normal" font-weight="normal" font-size="108" text-anchor="end">Data (D)</text>
<!-- Text -->
<text xml:space="preserve" x="1890" y="1395" fill="#000000" font-family="Helvetica" font-style="normal" font-weight="normal" font-size="96" text-anchor="middle">0</text>
<!-- Text -->
<text xml:space="preserve" x="2160" y="1395" fill="#000000" font-family="Helvetica" font-style="normal" font-weight="normal" font-size="96" text-anchor="middle">1</text>
<!-- Text -->
<text xml:space="preserve" x="2430" y="1395" fill="#000000" font-family="Helvetica" font-style="normal" font-weight="normal" font-size="96" text-anchor="middle">2</text>
<!-- Text -->
<text xml:space="preserve" x="2700" y="1395" fill="#000000" font-family="Helvetica" font-style="normal" font-weight="normal" font-size="96" text-anchor="middle">3</text>
<!-- Text -->
<text xml:space="preserve" x="2970" y="1395" fill="#000000" font-family="Helvetica" font-style="normal" font-weight="normal" font-size="96" text-anchor="middle">4</text>
<!-- Text -->
<text xml:space="preserve" x="3690" y="1395" fill="#000000" font-family="Helvetica" font-style="normal" font-weight="normal" font-size="96" text-anchor="middle">38</text>
<!-- Text -->
<text xml:space="preserve" x="3960" y="1395" fill="#000000" font-family="Helvetica" font-style="normal" font-weight="normal" font-size="96" text-anchor="middle">39</text>
<!-- Text -->
<text xml:space="preserve" x="1080" y="2025" fill="#000000" font-family="Helvetica" font-style="normal" font-weight="normal" font-size="108" text-anchor="end">Latch (RC)</text>
<!-- Text -->
<text xml:space="preserve" x="1080" y="1755" fill="#000000" font-family="Helvetica" font-style="normal" font-weight="normal" font-size="108" text-anchor="end">Clock (DC)</text>
<!-- Text -->
<text xml:space="preserve" x="2520" y="405" fill="#000000" font-family="Helvetica" font-style="normal" font-weight="normal" font-size="108" text-anchor="middle">4x5 Flip Dot Panel - Simplified Schematic</text>
<!-- Text -->
<text xml:space="preserve" x="3317" y="1395" fill="#000000" font-family="Helvetica" font-style="normal" font-weight="normal" font-size="108" text-anchor="middle">...</text>
<!-- Text -->
<text xml:space="preserve" x="3555" y="2700" fill="#000000" font-family="Helvetica" font-style="normal" font-weight="normal" font-size="96" text-anchor="middle">+12V</text>
<!-- Text -->
<text xml:space="preserve" x="3870" y="3915" fill="#000000" font-family="Helvetica" font-style="normal" font-weight="normal" font-size="96" text-anchor="middle">clear</text>
<!-- Text -->
<text xml:space="preserve" x="3240" y="3915" fill="#000000" font-family="Helvetica" font-style="normal" font-weight="normal" font-size="96" text-anchor="middle">set</text>
<!-- Text -->
<text xml:space="preserve" x="3555" y="2475" fill="#000000" font-family="Helvetica" font-style="normal" font-weight="normal" font-size="108" text-anchor="middle">Per-pixel</text>
<!-- Text -->
<text xml:space="preserve" x="1665" y="2385" fill="#000000" font-family="Helvetica" font-style="normal" font-weight="normal" font-size="108" text-anchor="middle">Panel layout (front view)</text>
<!-- Circle -->
<circle cx="2565" cy="765" r="142" fill="#ffffff"
	stroke="#000000" stroke-width="8px"/>
<!-- Circle -->
<circle cx="3105" cy="765" r="142" fill="#ffffff"
	stroke="#000000" stroke-width="8px"/>
<!-- Circle -->
<circle cx="3825" cy="765" r="142" fill="#ffffff"
	stroke="#000000" stroke-width="8px"/>
<!-- Circle -->
<circle cx="2025" cy="765" r="142" fill="#ffffff"
	stroke="#000000" stroke-width="8px"/>
<!-- Circle -->
<circle cx="3240" cy="3285" r="34" fill="#ffffff"
	stroke="#000000" stroke-width="8px"/>
<!-- Circle -->
<circle cx="3870" cy="3285" r="34" fill="#ffffff"
	stroke="#000000" stroke-width="8px"/>
<!-- Text -->
<text xml:space="preserve" x="3825" y="810" fill="#000000" font-family="Helvetica" font-style="normal" font-weight="bold" font-size="96" text-anchor="middle">20</text>
<!-- Text -->
<text xml:space="preserve" x="3105" y="810" fill="#000000" font-family="Helvetica" font-style="normal" font-weight="bold" font-size="96" text-anchor="middle">3</text>
<!-- Text -->
<text xml:space="preserve" x="2025" y="810" fill="#000000" font-family="Helvetica" font-style="normal" font-weight="bold" font-size="96" text-anchor="middle">1</text>
<!-- Text -->
<text xml:space="preserve" x="2565" y="810" fill="#000000" font-family="Helvetica" font-style="normal" font-weight="bold" font-size="96" text-anchor="middle">2</text>
<!-- Text -->
<text xml:space="preserve" x="2115" y="2700" fill="#000000" font-family="Helvetica" font-style="normal" font-weight="bold" font-size="96" text-anchor="middle">1</text>
<!-- Text -->
<text xml:space="preserve" x="1800" y="2700" fill="#000000" font-family="Helvetica" font-style="normal" font-weight="bold" font-size="96" text-anchor="middle">2</text>
<!-- Text -->
<text xml:space="preserve" x="1485" y="2700" fill="#000000" font-family="Helvetica" font-style="normal" font-weight="bold" font-size="96" text-anchor="middle">3</text>
<!-- Text -->
<text xml:space="preserve" x="1170" y="2700" fill="#000000" font-family="Helvetica" font-style="normal" font-weight="bold" font-size="96" text-anchor="middle">4</text>
<!-- Text -->
<text xml:space="preserve" x="2115" y="3015" fill="#000000" font-family="Helvetica" font-style="normal" font-weight="bold" font-size="96" text-anchor="middle">5</text>
<!-- Text -->
<text xml:space="preserve" x="1485" y="3015" fill="#000000" font-family="Helvetica" font-style="normal" font-weight="bold" font-size="96" text-anchor="middle">7</text>
<!-- Text -->
<text xml:space="preserve" x="1170" y="3015" fill="#000000" font-family="Helvetica" font-style="normal" font-weight="bold" font-size="96" text-anchor="middle">8</text>
<!-- Text -->
<text xml:space="preserve" x="1800" y="3015" fill="#000000" font-family="Helvetica" font-style="normal" font-weight="bold" font-size="96" text-anchor="middle">6</text>
<!-- Text -->
<text xml:space="preserve" x="1170" y="3330" fill="#000000" font-family="Helvetica" font-style="normal" font-weight="bold" font-size="96" text-anchor="middle">12</text>
<!-- Text -->
<text xml:space="preserve" x="1485" y="3330" fill="#000000" font-family="Helvetica" font-style="normal" font-weight="bold" font-size="96" text-anchor="middle">11</text>
<!-- Text -->
<text xml:space="preserve" x="1800" y="3330" fill="#000000" font-family="Helvetica" font-style="normal" font-weight="bold" font-size="96" text-anchor="middle">10</text>
<!-- Text -->
<text xml:space="preserve" x="2115" y="3330" fill="#000000" font-family="Helvetica" font-style="normal" font-weight="bold" font-size="96" text-anchor="middle">9</text>
<!-- Text -->
<text xml:space="preserve" x="1800" y="3645" fill="#000000" font-family="Helvetica" font-style="normal" font-weight="bold" font-size="96" text-anchor="middle">14</text>
<!-- Text -->
<text xml:space="preserve" x="1170" y="3645" fill="#000000" font-family="Helvetica" font-style="normal" font-weight="bold" font-size="96" text-anchor="middle">16</text>
<!-- Text -->
<text xml:space="preserve" x="2115" y="3645" fill="#000000" font-family="Helvetica" font-style="normal" font-weight="bold" font-size="96" text-anchor="middle">13</text>
<!-- Text -->
<text xml:space="preserve" x="1485" y="3645" fill="#000000" font-family="Helvetica" font-style="normal" font-weight="bold" font-size="96" text-anchor="middle">15</text>
<!-- Text -->
<text xml:space="preserve" x="1800" y="3960" fill="#000000" font-family="Helvetica" font-style="normal" font-weight="bold" font-size="96" text-anchor="middle">18</text>
<!-- Text -->
<text xml:space="preserve" x="1170" y="3960" fill="#000000" font-family="Helvetica" font-style="normal" font-weight="bold" font-size="96" text-anchor="middle">20</text>
<!-- Text -->
<text xml:space="preserve" x="1485" y="3960" fill="#000000" font-family="Helvetica" font-style="normal" font-weight="bold" font-size="96" text-anchor="middle">19</text>
<!-- Text -->
<text xml:space="preserve" x="2115" y="3960" fill="#000000" font-family="Helvetica" font-style="normal" font-weight="bold" font-size="96" text-anchor="middle">17</text>
</g>
</svg>
